# xmcd
#
# Track frame offsets:
# 150
# 18630
# 34864
# 53101
# 71326
# 88228
# 106330
# 120921
# 137542
# 156891
# 173399
# 187664
# 203309
# 220014
#
# Disc length: 3150 seconds
#
#
# Revision: 7
# Processed by: cddbd v1.5.1PL0 Copyright (c) Steve Scherf et al.
# Submitted via: FreeRIP 2.941 
#
DISCID=a80c4c0e
DTITLE=Leonardo Grandes Sucessos - Leonardo Grandes Sucessos
DYEAR=2004
DGENRE=Sertanejo
TTITLE0=Uma Lágrima
TTITLE1=Fantasias
TTITLE2=Pouco a Pouco
TTITLE3=Vem me Ajudar - Mar de Rosas
TTITLE4=A Desconhecida
TTITLE5=Pedaço de Meu Caminho - Mon Amour, Meu Bem, Ma Femme
TTITLE6=Meu Mel
TTITLE7=Ninguém Vai Tirar Você de Mim
TTITLE8=Seresteiro das Noites - Meu Ex-Amor
TTITLE9=Perto dos Olhos, Longe do Coração
TTITLE10=Só Mais Uma Vez
TTITLE11=Ainda Queima a Esperança
TTITLE12=Última Canção
TTITLE13=Solidão de Amigos
EXTD=YEAR: 2004
EXTT0=
EXTT1=
EXTT2=
EXTT3=
EXTT4=
EXTT5=
EXTT6=
EXTT7=
EXTT8=
EXTT9=
EXTT10=
EXTT11=
EXTT12=
EXTT13=
PLAYORDER=
